<?xml version="1.0" standalone="no"?><!DOCTYPE svg PUBLIC "-//W3C//DTD SVG 1.1//EN" "http://www.w3.org/Graphics/SVG/1.1/DTD/svg11.dtd"><svg t="1545812931831" class="icon" style="" viewBox="0 0 1024 1024" version="1.1" xmlns="http://www.w3.org/2000/svg" p-id="3099" xmlns:xlink="http://www.w3.org/1999/xlink" width="200" height="200"><defs><style type="text/css"></style></defs><path d="M592.64 581.568A255.296 255.296 0 0 0 512 768a255.36 255.36 0 0 0 86.656 192H64v-164.544C64 649.536 362.496 576 512 576c23.68 0 51.2 1.856 80.64 5.568zM512 64c123.776 0 224 100.224 224 224S635.776 512 512 512a223.936 223.936 0 0 1-224-224C288 164.224 388.224 64 512 64z m320 512v128h128v128h-128v128h-128v-128H576v-128h128V576h128z" fill="#262626" p-id="3100"></path></svg>