<?xml version="1.0" standalone="no"?><!DOCTYPE svg PUBLIC "-//W3C//DTD SVG 1.1//EN" "http://www.w3.org/Graphics/SVG/1.1/DTD/svg11.dtd"><svg t="1546853717581" class="icon" style="" viewBox="0 0 1024 1024" version="1.1" xmlns="http://www.w3.org/2000/svg" p-id="2887" xmlns:xlink="http://www.w3.org/1999/xlink" width="200" height="200"><defs><style type="text/css"></style></defs><path d="M855.733157 63.83998 168.26582 63.83998c-57.672514 0-104.425328 46.752814-104.425328 104.426351l0 687.46836c0 57.672514 46.752814 104.425328 104.425328 104.425328L855.733157 960.16002c57.672514 0 104.425328-46.752814 104.425328-104.425328L960.158485 168.266331C960.158485 110.592794 913.406694 63.83998 855.733157 63.83998zM724.777593 539.67327c-5.284353 13.393032-17.958 33.710776-31.210839 46.046732-14.598486 13.586436-21.436218 18.960841-35.677571 21.563108-7.648191 1.39886 7.611352-17.064654 12.644995-22.575158 19.836791-21.795399 28.535917-57.634652 25.994024-86.729294-4.040013-45.862537-58.316174-108.706841-96.937796-116.975155l-63.732533 259.038708c-15.70468 63.832817-24.083511 89.279373-51.118238 113.140827-65.715701 58.007135-163.949003 63.996546-191.106526-10.79895-5.092995-14.026458-10.534937-40.192398-0.165776-61.47205 31.800263-65.397453 131.969661-90.960665 199.63476-37.420261L595.721285 226.397287l32.317033 7.951089C613.600491 349.916485 781.192464 396.384819 724.777593 539.67327z" p-id="2888"></path></svg>